HIERARCHY
ROOT Hips
{
  OFFSET 53.0225 84.3128 4.15482
  CHANNELS 6 Xposition Yposition Zposition Zrotation Xrotation Yrotation
  JOINT spine
  {
    OFFSET 0 5.95438 0.342407
    CHANNELS 3 Zrotation Xrotation Yrotation
    JOINT spine1
    {
      OFFSET 0 8.85602 0
      CHANNELS 3 Zrotation Xrotation Yrotation
      JOINT spine2
      {
        OFFSET 0 8.48567 0
        CHANNELS 3 Zrotation Xrotation Yrotation
        JOINT Neck
        {
          OFFSET 0 21.7863 1.0387
          CHANNELS 3 Zrotation Xrotation Yrotation
          JOINT Head
          {
            OFFSET 0 6.5822 0
            CHANNELS 3 Zrotation Xrotation Yrotation
            End Site
            {
              OFFSET 0 15.9326 -5.25436
            }
          }
        }
        JOINT RightShoulder
        {
          OFFSET -3.57307 9.16386 -0.497525
          CHANNELS 3 Zrotation Xrotation Yrotation
          JOINT RightArm
          {
            OFFSET 0 12.0192 0
            CHANNELS 3 Zrotation Xrotation Yrotation
            JOINT RightArmRoll
            {
              OFFSET 0 6.06755 0
              CHANNELS 3 Zrotation Xrotation Yrotation
              JOINT RightForeArm
              {
                OFFSET 0 17.6726 0
                CHANNELS 3 Zrotation Xrotation Yrotation
                JOINT RightForeArmRoll
                {
                  OFFSET 0 6.80872 0
                  CHANNELS 3 Zrotation Xrotation Yrotation
                  JOINT RightHand
                  {
                    OFFSET 0 13.6636 0
                    CHANNELS 3 Zrotation Xrotation Yrotation
                    End Site
                    {
                      OFFSET 0 0 0
                    }
                  }
                }
              }
            }
          }
        }
        JOINT LeftShoulder
        {
          OFFSET 3.57307 9.16386 -0.497525
          CHANNELS 3 Zrotation Xrotation Yrotation
          JOINT LeftArm
          {
            OFFSET 0 12.0192 0
            CHANNELS 3 Zrotation Xrotation Yrotation
            JOINT LeftArmRoll
            {
              OFFSET 0 6.06755 0
              CHANNELS 3 Zrotation Xrotation Yrotation
              JOINT LeftForeArm
              {
                OFFSET 0 17.6726 0
                CHANNELS 3 Zrotation Xrotation Yrotation
                JOINT LeftForeArmRoll
                {
                  OFFSET 0 6.80872 0
                  CHANNELS 3 Zrotation Xrotation Yrotation
                  JOINT LeftHand
                  {
                    OFFSET 0 13.6636 0
                    CHANNELS 3 Zrotation Xrotation Yrotation
                    End Site
                    {
                      OFFSET 0 0 0
                    }
                  }
                }
              }
            }
          }
        }
      }
    }
  }
  JOINT RightUpLeg
  {
    OFFSET -5.27774 -0.967797 -0.811858
    CHANNELS 3 Zrotation Xrotation Yrotation
    JOINT RightUpLegRoll
    {
      OFFSET 0 16.0214 0
      CHANNELS 3 Zrotation Xrotation Yrotation
      JOINT RightLeg
      {
        OFFSET 0 -19.8401 0
        CHANNELS 3 Zrotation Xrotation Yrotation
        JOINT RightLegRoll
        {
          OFFSET 0 19.905 0
          CHANNELS 3 Zrotation Xrotation Yrotation
          JOINT RightFoot
          {
            OFFSET 0 16.5675 0
            CHANNELS 3 Zrotation Xrotation Yrotation
            JOINT RightToeBase
            {
              OFFSET 0 13.8496 0
              CHANNELS 3 Zrotation Xrotation Yrotation
              End Site
              {
                OFFSET 0.00587034 6.70728 -0.773116
              }
            }
          }
        }
      }
    }
  }
  JOINT LeftUpLeg
  {
    OFFSET 5.27774 -0.967797 -0.811858
    CHANNELS 3 Zrotation Xrotation Yrotation
    JOINT LeftUpLegRoll
    {
      OFFSET 0 16.0215 0
      CHANNELS 3 Zrotation Xrotation Yrotation
      JOINT LeftLeg
      {
        OFFSET 0 19.84 0
        CHANNELS 3 Zrotation Xrotation Yrotation
        JOINT LeftLegRoll
        {
          OFFSET 0 20.089 0
          CHANNELS 3 Zrotation Xrotation Yrotation
          JOINT LeftFoot
          {
            OFFSET 0 16.3835 0
            CHANNELS 3 Zrotation Xrotation Yrotation
            JOINT LeftToeBase
            {
              OFFSET 0 13.8496 0
              CHANNELS 3 Zrotation Xrotation Yrotation
              End Site
              {
                OFFSET -0.0263083 6.70728 -0.773117
              }
            }
          }
        }
      }
    }
  }
}
MOTION
Frames: 13
Frame Time: 0.00208333
53.8842 84.2897 3.61242 0.998218 -10.3691 -3.06799 0.0178521 -0.287286 0.0604798 0.0586627 3.42827 0.123808 0.0572067 5.07335 0.130202 -4.73152 9.99646 -0.0288428 6.16923 6.974 -1.39488 74.8554 0.472988 -1.56938 104.329 16.6495 -5.22089 3.38928e-014 -3.18055e-015 1.07344e-014 -3.64322 -0.0277461 -1.99262 -7.09223e-007 1.29698e-006 -3.01161 8.03008 -4.95138 0.697637 -72.3507 -3.94113 3.36669 -110.488 17.3091 10.1368 -1.19271e-015 3.18055e-015 -7.95139e-016 3.64606 -0.0289324 1.99263 -8.13489e-007 -7.53161e-006 3.01161 -8.03011 -4.9514 -0.697625 177.163 -2.72288 5.00989 180 7.01529e-015 178.846 176.675 12.1019 179.977 3.73657e-006 3.15474e-006 0.187261 -20.0124 69.6581 21.0086 8.13649 25.2327 -3.48774 177.973 -5.13716 0.753638 4.54188e-006 -4.6773e-006 -1.17564 -2.52493 -9.6099 0.0388589 -1.5855e-006 5.05481e-006 -0.134107 19.4654 69.0904 -20.4781 -8.13649 25.2327 3.48774 
53.8766 84.292 3.6354 0.99828 -10.3647 -3.07078 0.0177627 -0.28888 0.0604798 0.0567883 3.42508 0.123923 0.0553291 5.07016 0.130369 -4.72142 10.0103 -0.0298312 6.16469 6.96765 -1.39292 74.8679 0.476141 -1.56939 104.325 16.6548 -5.21906 9.44227e-015 3.18055e-015 1.98785e-015 -3.64322 -0.0277461 -1.99262 -7.09223e-007 1.29698e-006 -3.01161 8.03008 -4.95138 0.697637 -72.3694 -3.93577 3.36544 -110.459 17.3221 10.1142 -5.1684e-015 0 -1.59028e-015 3.64606 -0.0289324 1.99263 -8.13489e-007 -7.53161e-006 3.01161 -8.03011 -4.9514 -0.697625 177.161 -2.72769 5.01099 180 7.01529e-015 178.846 176.674 12.0891 179.976 3.73657e-006 3.15474e-006 0.186798 -20.0009 69.6463 20.9963 8.13649 25.2327 -3.48774 177.974 -5.13435 0.75169 4.54188e-006 -4.6773e-006 -1.17564 -2.52757 -9.60891 0.0384402 -1.5855e-006 5.05481e-006 -0.134107 19.4675 69.0927 -20.4803 -8.13649 25.2327 3.48774 
53.8741 84.2926 3.63624 0.998289 -10.3603 -3.07353 0.0176798 -0.290469 0.0604799 0.0548557 3.4219 0.12404 0.0533933 5.06698 0.130543 -4.70997 10.0237 -0.0309603 6.15897 6.96183 -1.39071 74.8812 0.478962 -1.56964 104.321 16.6602 -5.217 -9.34288e-015 0 -3.18055e-015 -3.64322 -0.0277461 -1.99262 -7.09223e-007 1.29698e-006 -3.01161 8.03008 -4.95138 0.697637 -72.3877 -3.93016 3.36403 -110.43 17.3347 10.0919 3.57812e-015 -3.18055e-015 1.59028e-015 3.64606 -0.0289324 1.99263 -8.13489e-007 -7.53161e-006 3.01161 -8.03011 -4.9514 -0.697625 177.159 -2.73282 5.01199 180 7.01528e-015 178.845 176.673 12.0757 179.976 3.73657e-006 3.15474e-006 0.186315 -19.9888 69.634 20.9835 8.13649 25.2327 -3.48774 177.974 -5.13133 0.749814 4.54188e-006 -4.6773e-006 -1.17564 -2.53009 -9.60794 0.0380286 -1.5855e-006 5.05481e-006 -0.134107 19.4697 69.095 -20.4826 -8.13649 25.2327 3.48774 
53.8755 84.2927 3.63168 0.998263 -10.3557 -3.07624 0.0176013 -0.292054 0.06048 0.0528825 3.41873 0.12416 0.0514169 5.06382 0.130719 -4.69757 10.0367 -0.0321881 6.15242 6.95637 -1.38832 74.8951 0.481549 -1.57005 104.317 16.6656 -5.21479 -2.88238e-015 0 -7.95139e-016 -3.64322 -0.0277461 -1.99262 -7.09223e-007 1.29698e-006 -3.01161 8.03008 -4.95138 0.697637 -72.4058 -3.92437 3.36252 -110.402 17.347 10.07 3.97569e-015 -3.18055e-015 1.59028e-015 3.64606 -0.0289324 1.99263 -8.13489e-007 -7.53161e-006 3.01161 -8.03011 -4.9514 -0.697625 177.158 -2.73818 5.0129 180 7.01528e-015 178.845 176.672 12.0616 179.975 3.73657e-006 3.15474e-006 0.185817 -19.9765 69.6214 20.9704 8.13649 25.2327 -3.48774 177.975 -5.12817 0.747987 4.54188e-006 -4.6773e-006 -1.17564 -2.53254 -9.60698 0.0376221 -1.5855e-006 5.05481e-006 -0.134107 19.4719 69.0974 -20.485 -8.13649 25.2327 3.48774 
53.881 84.2927 3.63015 0.998216 -10.3511 -3.07894 0.0175254 -0.293636 0.0604801 0.0508861 3.41556 0.124281 0.0494172 5.06065 0.130898 -4.68463 10.0496 -0.0334723 6.1454 6.95112 -1.38582 74.9092 0.484003 -1.57055 104.312 16.6711 -5.2125 -6.85807e-015 -3.18055e-015 -2.38542e-015 -3.64322 -0.0277461 -1.99262 -7.09223e-007 1.29698e-006 -3.01161 8.03008 -4.95138 0.697637 -72.4236 -3.91847 3.36096 -110.374 17.3591 10.0481 1.98785e-015 -6.36111e-015 -0 3.64606 -0.0289324 1.99263 -8.13489e-007 -7.53161e-006 3.01161 -8.03011 -4.9514 -0.697625 177.157 -2.74366 5.01377 180 7.01528e-015 178.845 176.671 12.0473 179.974 3.73657e-006 3.15474e-006 0.185311 -19.9639 69.6086 20.957 8.13649 25.2327 -3.48774 177.976 -5.12493 0.74619 4.54188e-006 -4.6773e-006 -1.17564 -2.53495 -9.60603 0.0372184 -1.5855e-006 5.05481e-006 -0.134107 19.4741 69.0997 -20.4873 -8.13649 25.2327 3.48774 
53.886 84.2943 3.62529 0.998165 -10.3465 -3.08163 0.0174502 -0.295218 0.0604802 0.0488839 3.4124 0.124403 0.0474117 5.05749 0.131077 -4.67155 10.0624 -0.0347706 6.13825 6.94592 -1.3833 74.9234 0.486424 -1.57108 104.308 16.6766 -5.21018 -0 -6.36111e-015 -0 -3.64322 -0.0277461 -1.99262 -7.09223e-007 1.29698e-006 -3.01161 8.03008 -4.95138 0.697637 -72.4415 -3.91255 3.35937 -110.346 17.3713 10.0263 1.59028e-015 -3.18055e-015 2.38542e-015 3.64606 -0.0289324 1.99263 -8.13489e-007 -7.53161e-006 3.01161 -8.03011 -4.9514 -0.697625 177.155 -2.74917 5.01464 180 7.01528e-015 178.844 176.67 12.0329 179.974 3.73657e-006 3.15474e-006 0.184803 -19.9514 69.5958 20.9437 8.13649 25.2327 -3.48774 177.976 -5.12167 0.744399 4.54188e-006 -4.6773e-006 -1.17564 -2.53734 -9.60508 0.0368154 -1.5855e-006 5.05481e-006 -0.134107 19.4763 69.1021 -20.4897 -8.13649 25.2327 3.48774 
53.8818 84.2839 3.63219 0.998124 -10.3419 -3.08433 0.0173737 -0.296801 0.0604803 0.0468933 3.40923 0.124524 0.0454179 5.05432 0.131255 -4.65874 10.0753 -0.0360409 6.13135 6.94061 -1.38083 74.9375 0.488912 -1.57156 104.303 16.682 -5.2079 1.16289e-014 0 3.57812e-015 -3.64322 -0.0277461 -1.99262 -7.09223e-007 1.29698e-006 -3.01161 8.03008 -4.95138 0.697637 -72.4594 -3.90668 3.35782 -110.317 17.3835 10.0044 9.14409e-015 0 2.38542e-015 3.64606 -0.0289324 1.99263 -8.13489e-007 -7.53161e-006 3.01161 -8.03011 -4.9514 -0.697625 177.154 -2.75461 5.01552 180 7.01528e-015 178.844 176.669 12.0186 179.973 3.73657e-006 3.15474e-006 0.184299 -19.9389 69.583 20.9304 8.13649 25.2327 -3.48774 177.977 -5.11845 0.742595 4.54188e-006 -4.6773e-006 -1.17564 -2.53975 -9.60412 0.036411 -1.5855e-006 5.05481e-006 -0.134107 19.4785 69.1045 -20.4921 -8.13649 25.2327 3.48774 
53.8802 84.2838 3.62121 0.99811 -10.3373 -3.08705 0.0172939 -0.298387 0.0604804 0.0449317 3.40606 0.124643 0.0434531 5.05115 0.131431 -4.64661 10.0884 -0.0372409 6.12503 6.93505 -1.37849 74.9512 0.491566 -1.57193 104.299 16.6875 -5.20574 -5.96354e-015 -9.54166e-015 -2.38542e-015 -3.64322 -0.0277461 -1.99262 -7.09223e-007 1.29698e-006 -3.01161 8.03008 -4.95138 0.697637 -72.4775 -3.90094 3.35634 -110.289 17.3959 9.98237 -3.33958e-014 9.54166e-015 -1.03368e-014 3.64606 -0.0289324 1.99263 -8.13489e-007 -7.53161e-006 3.01161 -8.03011 -4.9514 -0.697625 177.152 -2.7599 5.01646 180 7.01528e-015 178.843 176.668 12.0047 179.973 3.73657e-006 3.15474e-006 0.183806 -19.9267 69.5705 20.9175 8.13649 25.2327 -3.48774 177.977 -5.11533 0.740754 4.54188e-006 -4.6773e-006 -1.17564 -2.54222 -9.60316 0.0360031 -1.5855e-006 5.05481e-006 -0.134107 19.4807 69.1069 -20.4944 -8.13649 25.2327 3.48774 
53.889 84.2916 3.62067 0.998138 -10.3329 -3.08981 0.017209 -0.299978 0.0604805 0.0430167 3.40288 0.12476 0.0415349 5.04797 0.131603 -4.63556 10.1019 -0.0383284 6.11967 6.92907 -1.37635 74.9642 0.494486 -1.57211 104.295 16.6928 -5.20375 -5.96354e-015 -3.18055e-015 -1.59028e-015 -3.64322 -0.0277461 -1.99262 -7.09223e-007 1.29698e-006 -3.01161 8.03008 -4.95138 0.697637 -72.4959 -3.8954 3.35498 -110.26 17.4086 9.96 -1.59028e-015 -3.18055e-015 7.95139e-016 3.64606 -0.0289324 1.99263 -8.13489e-007 -7.53161e-006 3.01161 -8.03011 -4.9514 -0.697625 177.15 -2.76494 5.01748 180 7.01528e-015 178.843 176.667 11.9915 179.972 3.73657e-006 3.15474e-006 0.183328 -19.9149 69.5583 20.9049 8.13649 25.2327 -3.48774 177.978 -5.11237 0.738856 4.54188e-006 -4.6773e-006 -1.17564 -2.54478 -9.60218 0.0355894 -1.5855e-006 5.05481e-006 -0.134107 19.4829 69.1092 -20.4967 -8.13649 25.2327 3.48774 
53.891 84.2844 3.62249 0.998224 -10.3286 -3.09262 0.0171171 -0.301575 0.0604805 0.0411656 3.39969 0.124872 0.0396806 5.04477 0.131768 -4.62601 10.116 -0.0392612 6.11562 6.92252 -1.3745 74.9764 0.497772 -1.57202 104.291 16.698 -5.202 1.75924e-014 -3.18055e-015 5.56597e-015 -3.64322 -0.0277461 -1.99262 -7.09223e-007 1.29698e-006 -3.01161 8.03008 -4.95138 0.697637 -72.5148 -3.89015 3.35378 -110.23 17.4217 9.93723 -2.70347e-014 9.54166e-015 -7.95139e-015 3.64606 -0.0289324 1.99263 -8.13489e-007 -7.53161e-006 3.01161 -8.03011 -4.9514 -0.697625 177.149 -2.76963 5.01862 180 7.01528e-015 178.843 176.666 11.9791 179.971 3.73657e-006 3.15474e-006 0.182874 -19.9037 69.5468 20.893 8.13649 25.2327 -3.48774 177.978 -5.10965 0.736879 4.54188e-006 -4.6773e-006 -1.17564 -2.54746 -9.60119 0.0351679 -1.5855e-006 5.05481e-006 -0.134107 19.485 69.1115 -20.499 -8.13649 25.2327 3.48774 
53.8853 84.2883 3.62759 0.998384 -10.3245 -3.09549 0.0170161 -0.30318 0.0604804 0.0393958 3.39648 0.12498 0.0379078 5.04156 0.131927 -4.61835 10.1307 -0.039997 6.11323 6.91524 -1.373 74.9875 0.501524 -1.57161 104.288 16.7032 -5.20056 -4.47266e-015 0 -2.38542e-015 -3.64322 -0.0277461 -1.99262 -7.09223e-007 1.29698e-006 -3.01161 8.03008 -4.95138 0.697637 -72.5342 -3.88526 3.3528 -110.2 17.4354 9.91394 -2.78299e-015 0 7.95139e-016 3.64606 -0.0289324 1.99263 -8.13489e-007 -7.53161e-006 3.01161 -8.03011 -4.9514 -0.697625 177.147 -2.77387 5.01992 180 7.01528e-015 178.842 176.665 11.9678 179.971 3.73657e-006 3.15474e-006 0.182448 -19.8931 69.5358 20.8817 8.13649 25.2327 -3.48774 177.979 -5.10721 0.734803 4.54188e-006 -4.6773e-006 -1.17564 -2.55029 -9.60017 0.0347364 -1.5855e-006 5.05481e-006 -0.134107 19.487 69.1137 -20.5012 -8.13649 25.2327 3.48774 
53.8859 84.2922 3.62981 0.998633 -10.3206 -3.09844 0.0169042 -0.304795 0.0604803 0.0377248 3.39325 0.125082 0.0362338 5.03833 0.132077 -4.61301 10.1462 -0.0404935 6.11286 6.90709 -1.37194 74.9973 0.505842 -1.5708 104.285 16.7081 -5.19949 2.34566e-014 6.36111e-015 7.15625e-015 -3.64322 -0.0277461 -1.99262 -7.09223e-007 1.29698e-006 -3.01161 8.03008 -4.95138 0.697637 -72.5543 -3.8808 3.35207 -110.168 17.4497 9.89001 -3.97569e-015 0 -7.95139e-016 3.64606 -0.0289324 1.99263 -8.13489e-007 -7.53161e-006 3.01161 -8.03011 -4.9514 -0.697625 177.144 -2.77758 5.0214 180 7.01528e-015 178.842 176.664 11.9578 179.971 3.73657e-006 3.15474e-006 0.182058 -19.8833 69.5257 20.8713 8.13649 25.2327 -3.48774 177.98 -5.10513 0.732604 4.54188e-006 -4.6773e-006 -1.17564 -2.55331 -9.59913 0.0342928 -1.5855e-006 5.05481e-006 -0.134107 19.489 69.1158 -20.5033 -8.13649 25.2327 3.48774 
53.8921 84.2907 3.62584 0.998988 -10.317 -3.10148 0.0167794 -0.306422 0.0604801 0.03617 3.38999 0.125177 0.0346761 5.03508 0.132216 -4.61037 10.1626 -0.0407086 6.11486 6.89789 -1.37139 75.0056 0.510825 -1.56952 104.283 16.7129 -5.19887 1.2921e-014 3.18055e-015 3.57812e-015 -3.64322 -0.0277461 -1.99262 -7.09223e-007 1.29698e-006 -3.01161 8.03008 -4.95138 0.697637 -72.5753 -3.87687 3.35164 -110.136 17.4649 9.86534 -1.07344e-014 -3.18055e-015 -3.18055e-015 3.64606 -0.0289324 1.99263 -8.13489e-007 -7.53161e-006 3.01161 -8.03011 -4.9514 -0.697625 177.142 -2.78065 5.02309 180 7.01528e-015 178.842 176.662 11.9495 179.97 3.73657e-006 3.15474e-006 0.181708 -19.8745 69.5166 20.862 8.13649 25.2327 -3.48774 177.98 -5.10346 0.730262 4.54188e-006 -4.6773e-006 -1.17564 -2.55655 -9.59805 0.0338349 -1.5855e-006 5.05481e-006 -0.134107 19.4909 69.1178 -20.5053 -8.13649 25.2327 3.48774 
